<svg xmlns="http://www.w3.org/2000/svg" xmlns:xlink="http://www.w3.org/1999/xlink" version="1.1" x="0px" y="0px" viewBox="0 0 100 125" enable-background="new 0 0 100 100" xml:space="preserve"><g>

<circle fill="#42636f" cx="48.456" cy="45.224" r="1.172"/>
<path fill="#42636f" d="M48.677,57.768c0,0.361,0.293,0.657,0.659,0.657c0.361,0,0.655-0.296,0.655-0.657l0.002-9.509h0.289v3.505   c0,0.703,0.919,0.703,0.917,0v-3.58c0-0.778-0.457-1.542-1.367-1.542h-2.629c-0.831,0-1.351,0.674-1.351,1.52v3.602   c0,0.699,0.923,0.699,0.923,0v-3.505h0.295l-0.001,9.509c0,0.361,0.294,0.657,0.658,0.657c0.362,0,0.657-0.296,0.657-0.657   l0.001-5.517h0.293L48.677,57.768z"/>

<circle fill="#fae16c" cx="36.003" cy="73.47" r="0.437"/>
<path fill="#fae16c" d="M36.516,73.997h-0.978c-0.31,0-0.503,0.252-0.503,0.566v1.341c0,0.26,0.345,0.26,0.345,0V74.6h0.109l-0.001,3.54   c0,0.135,0.112,0.244,0.245,0.244c0.136,0,0.246-0.109,0.246-0.244v-2.055h0.109v2.055c0,0.135,0.107,0.244,0.244,0.244   c0.135,0,0.244-0.109,0.244-0.244l0.002-3.54h0.108v1.305c0,0.262,0.343,0.262,0.341,0v-1.332   C37.025,74.283,36.855,73.997,36.516,73.997z"/>

<circle fill="teal" cx="87.709" cy="69.092" r="0.438"/>
<path fill="teal" d="M87.086,71.526v-1.305h0.109l-0.002,3.54c0,0.135,0.109,0.244,0.246,0.244c0.135,0,0.244-0.109,0.244-0.244v-2.054h0.109   v2.054c0,0.135,0.109,0.244,0.244,0.244s0.244-0.109,0.244-0.244l0.002-3.54h0.105v1.305c0,0.263,0.344,0.263,0.344,0v-1.332   c0-0.289-0.172-0.574-0.512-0.574h-0.977c-0.311,0-0.504,0.252-0.504,0.566v1.34C86.74,71.787,87.086,71.787,87.086,71.526z"/>

<circle cx="49.611" cy="12.826" r="0.436"/>
<path d="M48.986,15.261v-1.305h0.109l-0.001,3.539c0,0.135,0.109,0.245,0.246,0.245c0.136,0,0.245-0.109,0.245-0.245l0.001-2.053   h0.107v2.053c0,0.135,0.11,0.245,0.244,0.245c0.136,0,0.245-0.109,0.245-0.245l0.002-3.539h0.107v1.305   c0,0.261,0.341,0.261,0.339,0v-1.334c0-0.29-0.169-0.574-0.507-0.574h-0.979c-0.31,0-0.504,0.251-0.504,0.566v1.342   C48.64,15.521,48.986,15.521,48.986,15.261z"/>

<circle fill="dodgerblue" cx="8.883" cy="24.139" r="0.436"/>
<path fill="dodgerblue" d="M8.966,28.81c0,0.134,0.109,0.245,0.244,0.245c0.136,0,0.245-0.111,0.245-0.245v-3.542h0.108v1.305   c0,0.265,0.342,0.265,0.341,0v-1.332c0-0.29-0.17-0.575-0.508-0.575H8.418c-0.31,0-0.504,0.253-0.504,0.567v1.339   c0,0.261,0.344,0.261,0.344,0v-1.305h0.111L8.367,28.81c0,0.134,0.11,0.245,0.245,0.245c0.135,0,0.245-0.111,0.245-0.245v-2.054   h0.109V28.81z"/>

<circle fill="tomato" cx="20.959" cy="58.009" r="0.437"/>
<path fill="tomato" d="M21.041,62.679c0,0.135,0.109,0.245,0.245,0.245c0.135,0,0.245-0.11,0.245-0.245V59.14h0.108v1.304   c0,0.262,0.343,0.262,0.341,0v-1.332c0-0.29-0.169-0.575-0.508-0.575h-0.979c-0.309,0-0.504,0.252-0.504,0.566v1.341   c0,0.26,0.345,0.26,0.345,0V59.14h0.11l-0.001,3.539c0,0.135,0.111,0.245,0.245,0.245c0.136,0,0.246-0.11,0.246-0.245v-2.054h0.108   V62.679z"/>

<circle fill="red" cx="89.979" cy="1.79" r="0.436"/>
<path fill="red" d="M89.355,4.225V2.92h0.107v3.54c0,0.135,0.109,0.245,0.246,0.245c0.135,0,0.244-0.109,0.244-0.245V4.407h0.109L90.061,6.46   c0,0.135,0.109,0.245,0.244,0.245c0.137,0,0.246-0.109,0.246-0.245V2.92h0.109v1.305c0,0.263,0.34,0.263,0.34,0V2.893   c0-0.29-0.17-0.575-0.508-0.575h-0.98c-0.309,0-0.502,0.252-0.502,0.567v1.34C89.01,4.486,89.355,4.486,89.355,4.225z"/>

<circle fill="darkcyan" cx="56.756" cy="75.243" r="0.61"/>
<path fill="darkcyan" d="M57.473,75.981h-1.367c-0.432,0-0.703,0.352-0.703,0.79v1.873c0,0.365,0.48,0.365,0.48,0v-1.822h0.152v4.948   c0,0.188,0.154,0.34,0.344,0.34s0.34-0.152,0.34-0.34v-2.871h0.154v2.871c0,0.188,0.15,0.34,0.34,0.34s0.342-0.152,0.342-0.34   l0.002-4.948h0.15v1.822c0,0.368,0.48,0.368,0.477,0v-1.862C58.184,76.379,57.945,75.981,57.473,75.981z"/>

<circle fill="green" cx="16.065" cy="80.82" r="0.61"/>
<path fill="green" d="M16.782,81.559h-1.368c-0.433,0-0.704,0.351-0.704,0.789v1.874c0,0.364,0.482,0.364,0.482,0v-1.822h0.152v4.947   c0,0.189,0.154,0.341,0.342,0.341c0.19,0,0.342-0.151,0.342-0.341v-2.871h0.152v2.871c0,0.189,0.154,0.341,0.342,0.341   c0.189,0,0.343-0.151,0.343-0.341l0.001-4.947h0.151v1.822c0,0.367,0.478,0.367,0.477,0v-1.862   C17.493,81.955,17.253,81.559,16.782,81.559z"/>

<circle fill="olive" cx="31.9" cy="27.168" r="0.645"/>
<path fill="olive" d="M30.974,30.77v-1.931h0.161v5.24c0,0.199,0.162,0.36,0.363,0.36c0.2,0,0.36-0.162,0.36-0.36l0.001-3.04h0.163l-0.002,3.04   c0,0.199,0.163,0.36,0.363,0.36c0.2,0,0.36-0.162,0.36-0.36l0.002-5.24h0.16v1.931c0,0.388,0.506,0.388,0.505,0v-1.972   c0-0.429-0.252-0.85-0.753-0.85h-1.449c-0.458,0-0.744,0.373-0.744,0.838v1.984C30.464,31.155,30.974,31.155,30.974,30.77z"/>

<circle fill="palevioletred" cx="76.337" cy="51.459" r="0.646"/>
<path fill="palevioletred" d="M74.902,53.077v1.983c0,0.387,0.51,0.387,0.51,0v-1.932h0.16v5.239c0,0.199,0.162,0.363,0.363,0.363   c0.199,0,0.359-0.164,0.359-0.363l0.002-3.039h0.162l-0.002,3.039c0,0.199,0.162,0.363,0.363,0.363   c0.199,0,0.361-0.164,0.361-0.363l0.002-5.239h0.16v1.932c0,0.39,0.506,0.39,0.504,0v-1.972c0-0.429-0.252-0.85-0.752-0.85h-1.449   C75.188,52.239,74.902,52.612,74.902,53.077z"/>

<circle fill="deepskyblue" cx="80.255" cy="25.494" r="0.888"/>
<path fill="deepskyblue" d="M78.285,27.716v2.724c0,0.531,0.699,0.531,0.699,0v-2.651h0.223l-0.002,7.196c0,0.275,0.225,0.498,0.498,0.498   c0.275,0,0.498-0.222,0.498-0.498l0.002-4.174h0.221l-0.002,4.174c0,0.275,0.223,0.498,0.498,0.498s0.498-0.222,0.498-0.498v-7.196   h0.219v2.651c0,0.536,0.695,0.536,0.695,0v-2.707c0-0.591-0.348-1.167-1.037-1.167h-1.988   C78.678,26.566,78.285,27.077,78.285,27.716z"/>

<path fill="rebeccapurple" d="M85.66,88.093c0.49,0,0.887-0.396,0.887-0.886c0-0.493-0.396-0.89-0.887-0.89s-0.887,0.396-0.887,0.89   C84.773,87.696,85.17,88.093,85.66,88.093z"/>
<path fill="rebeccapurple" d="M86.699,88.279h-1.988c-0.627,0-1.021,0.51-1.021,1.149v2.724c0,0.53,0.699,0.53,0.699,0v-2.65h0.223l-0.002,7.196   c0,0.274,0.225,0.497,0.498,0.497c0.275,0,0.498-0.223,0.498-0.497l0.002-4.175h0.221l-0.002,4.175   c0,0.274,0.223,0.497,0.496,0.497c0.277,0,0.5-0.223,0.5-0.497l0.002-7.196h0.219v2.65c0,0.535,0.695,0.535,0.693,0v-2.707   C87.736,88.854,87.389,88.279,86.699,88.279z"/>

<path d="M87.789,84.404l0.43-8.82c2.062-0.242,3.674-1.981,3.674-4.107c0-2.293-1.865-4.158-4.156-4.158   c-0.701,0-1.354,0.19-1.934,0.499l-5.961-8.056c1.479-1.076,2.443-2.813,2.443-4.776c0-3.043-2.312-5.556-5.273-5.875l2.738-10.869   c0.186,0.013,0.371,0.028,0.561,0.028c4.371,0,7.93-3.558,7.93-7.932c0-3.016-1.693-5.642-4.178-6.983l6.291-15.06   c2.127-0.181,3.809-1.949,3.809-4.12c0-2.292-1.865-4.158-4.158-4.158c-2.291,0-4.156,1.865-4.156,4.158   c0,0.086,0.021,0.167,0.025,0.251l-32.418,9.144c-0.639-1.479-2.107-2.52-3.818-2.52c-2.292,0-4.157,1.866-4.157,4.159   c0,0.916,0.307,1.756,0.811,2.443l-10.824,8.312c-0.986-0.737-2.205-1.18-3.529-1.18c-2.496,0-4.631,1.558-5.497,3.75l-13.395-1.81   c0.004-0.068,0.021-0.132,0.021-0.202c0-2.292-1.865-4.158-4.158-4.158s-4.157,1.865-4.157,4.158c0,2.171,1.677,3.938,3.802,4.122   l10.457,26.111c-1.293,0.706-2.184,2.062-2.184,3.637c0,1.56,0.872,2.903,2.144,3.615l-3.277,14.556   c-2.904,0.209-5.203,2.633-5.203,5.588c0,3.093,2.517,5.608,5.609,5.608s5.609-2.516,5.609-5.608c0-0.627-0.109-1.229-0.3-1.794   l11.615-3.646c0.758,0.797,1.821,1.299,3.004,1.299c1.723,0,3.205-1.055,3.833-2.552l11.336,0.812   c-0.006,0.102-0.016,0.202-0.016,0.305c0,3.093,2.518,5.609,5.609,5.609c1.777,0,3.361-0.833,4.389-2.125l16.891,7.897   c-0.184,0.668-0.289,1.368-0.289,2.094c0,4.374,3.557,7.932,7.93,7.932s7.932-3.558,7.932-7.932   C93.645,88.396,91.156,85.32,87.789,84.404z M90.887,71.477c0,1.736-1.414,3.149-3.15,3.149c-1.738,0-3.15-1.413-3.15-3.149   c0-1.738,1.412-3.152,3.15-3.152C89.473,68.324,90.887,69.738,90.887,71.477z M84.975,68.392c-0.85,0.762-1.396,1.856-1.396,3.085   c0,0.463,0.094,0.899,0.232,1.314l-21.445,5.153c-0.314-2.797-2.693-4.979-5.572-4.979c-0.736,0-1.436,0.146-2.08,0.404   l-2.025-12.31c2.445-1.083,4.391-3.085,5.398-5.57H70.49c0.256,3.023,2.797,5.406,5.885,5.406c0.934,0,1.816-0.225,2.602-0.611   L84.975,68.392z M38.27,72.363c-0.648-0.417-1.415-0.666-2.24-0.666c-1.097,0-2.089,0.435-2.833,1.132l-9.199-9.588   c0.705-0.745,1.145-1.743,1.145-2.849c0-0.186-0.031-0.364-0.055-0.543l13.691-4.872c0.769,2.229,2.276,4.11,4.234,5.354   l-0.31-0.113L38.27,72.363z M31.938,36.606c1.405,0,2.696-0.496,3.711-1.317l5.332,9.325c-1.715,1.842-2.772,4.304-2.772,7.012   c0,0.821,0.106,1.617,0.289,2.383l-13.654,4.858c-0.332-0.836-0.927-1.533-1.684-2.001l6.581-20.689   C30.42,36.451,31.16,36.606,31.938,36.606z M49.112,19.314l-1.066,22.021c-2.417,0.112-4.615,1.054-6.321,2.554l-5.331-9.324   c0.901-1.038,1.453-2.39,1.453-3.87c0-1.566-0.617-2.988-1.616-4.048l10.757-8.259C47.582,18.882,48.309,19.211,49.112,19.314z    M55.539,44.081c-1.723-1.601-3.986-2.617-6.485-2.745l1.066-22.019c1.417-0.167,2.609-1.037,3.222-2.263l19.975,9.546   c-0.598,1.114-0.938,2.386-0.938,3.736c0,1.883,0.66,3.613,1.762,4.975L55.539,44.081z M39.215,51.626   c0-5.133,4.177-9.309,9.312-9.309c5.133,0,9.309,4.176,9.309,9.309c0,5.134-4.176,9.311-9.309,9.311   C43.393,60.937,39.215,56.76,39.215,51.626z M81.279,54.985c0,2.703-2.201,4.903-4.904,4.903s-4.904-2.2-4.904-4.903   s2.201-4.902,4.904-4.902S81.279,52.282,81.279,54.985z M75.979,49.096c-2.908,0.194-5.242,2.494-5.488,5.387H58.432   c0.264-0.908,0.412-1.864,0.412-2.856c0-2.597-0.973-4.966-2.562-6.782l18.578-8.758c1.062,1.008,2.396,1.729,3.885,2.027   L75.979,49.096z M87.232,30.338c0,3.818-3.105,6.925-6.922,6.925c-3.818,0-6.926-3.107-6.926-6.925s3.107-6.924,6.926-6.924   C84.127,23.414,87.232,26.52,87.232,30.338z M90.004,1.024c1.738,0,3.152,1.413,3.152,3.151c0,1.736-1.414,3.148-3.152,3.148   c-1.734,0-3.148-1.412-3.148-3.148C86.855,2.437,88.27,1.024,90.004,1.024z M86.061,5.422c0.461,1.454,1.689,2.563,3.219,2.835   l-6.135,14.684c-0.881-0.34-1.834-0.534-2.834-0.534c-2.66,0-5.014,1.321-6.453,3.336l-20.166-9.639   c0.062-0.289,0.102-0.587,0.102-0.895c0-0.229-0.031-0.449-0.066-0.668L86.061,5.422z M49.637,12.058   c1.736,0,3.148,1.414,3.148,3.152c0,1.736-1.412,3.149-3.148,3.149c-1.737,0-3.15-1.413-3.15-3.149   C46.487,13.472,47.9,12.058,49.637,12.058z M31.938,25.792c2.703,0,4.903,2.2,4.903,4.903c0,2.705-2.2,4.904-4.903,4.904   c-2.704,0-4.903-2.199-4.903-4.904C27.035,27.992,29.234,25.792,31.938,25.792z M5.76,26.523c0-1.738,1.413-3.151,3.15-3.151   s3.15,1.413,3.15,3.151c0,1.737-1.413,3.151-3.15,3.151S5.76,28.26,5.76,26.523z M9.625,30.608   c1.553-0.271,2.797-1.406,3.247-2.892l13.275,1.794c-0.079,0.383-0.12,0.778-0.12,1.184c0,2.118,1.124,3.975,2.803,5.019   l-6.594,20.736c-0.397-0.127-0.812-0.214-1.25-0.214c-0.36,0-0.705,0.061-1.039,0.147L9.625,30.608z M17.835,60.393   c0-1.736,1.413-3.15,3.15-3.15c1.736,0,3.149,1.414,3.149,3.15s-1.413,3.15-3.149,3.15C19.248,63.543,17.835,62.129,17.835,60.393z    M16.101,88.753c-2.538,0-4.603-2.064-4.603-4.602c0-2.538,2.064-4.602,4.603-4.602s4.602,2.063,4.602,4.602   C20.703,86.688,18.639,88.753,16.101,88.753z M21.002,81.433c-0.863-1.55-2.438-2.649-4.28-2.854l3.196-14.186   c0.343,0.092,0.696,0.156,1.067,0.156c0.825,0,1.589-0.249,2.235-0.664l9.324,9.716c-0.422,0.65-0.673,1.421-0.673,2.251   c0,0.728,0.205,1.402,0.535,1.999L21.002,81.433z M36.029,79.003c-1.736,0-3.149-1.413-3.149-3.15c0-1.735,1.413-3.148,3.149-3.148   c1.738,0,3.151,1.413,3.151,3.148C39.18,77.59,37.767,79.003,36.029,79.003z M40.125,76.467c0.029-0.201,0.062-0.403,0.062-0.614   c0-1.078-0.423-2.053-1.1-2.792l4.517-12.369c1.464,0.799,3.141,1.253,4.923,1.253c1.117,0,2.19-0.185,3.2-0.515l2.047,12.426   c-1.203,0.771-2.088,1.986-2.43,3.414L40.125,76.467z M56.793,83.178c-2.537,0-4.602-2.065-4.602-4.604s2.064-4.603,4.602-4.603   s4.602,2.064,4.602,4.603S59.33,83.178,56.793,83.178z M61.742,81.208c0.361-0.674,0.584-1.431,0.641-2.232l21.865-5.254   c0.65,1.006,1.721,1.698,2.963,1.858l-0.42,8.622c-0.354-0.05-0.711-0.083-1.078-0.083c-3.291,0-6.119,2.016-7.318,4.877   L61.742,81.208z M85.713,98.975c-3.818,0-6.924-3.106-6.924-6.925c0-3.816,3.105-6.924,6.924-6.924   c3.816,0,6.924,3.107,6.924,6.924C92.637,95.868,89.529,98.975,85.713,98.975z"/></g></svg>